<svg width="199" height="64" viewBox="0 0 199 64" fill="none" xmlns="http://www.w3.org/2000/svg"><path d="M13.5 10.5C16.085 8.14 20.5 7 27 7s12.5 1.5 16.5 9c-5 1-9.897 1.1-14.5-1.5-7-3.952-12.833-5-15.5-4z" fill="#6FBA6D"/><path d="M4.796 22.524c-.515-3.175.772-9.715 10.04-10.476 11.586-.953 13.517 9.904 30.895 4.952L42.5 11c1-1.5 3 1 5.355 2.571 4.174 2.786 2.124 5.715.386 8.19 1.159 1.97 3.514 7.544 3.669 14.096.154 6.553-.58 11.365-.965 12.953-.194.571-.27 1.79.965 2.095 1.545.38 1.93 6.095-2.124 4.952-4.055-1.143-3.283-.762-7.338 0C38.394 56.62 30.284 57 26.422 57s-14.675-.952-16.413-1.524c-1.738-.571-3.282-.762-6.951.381-3.669 1.143-1.545-5.333-.386-4.952 1.158.38.772 1.904 2.896 2.095 2.124.19-7.53-1.714-.386-28.381.643-1.905 4.286-5.143 13.71-2.857l10.812 4.19c1.931.699 6.874 1.715 11.2.19.257-.126.077-.418-2.704-.57-3.475-.191-6.178-.572-15.254-4.381-9.075-3.81-15.447-3.81-18.15 1.333z" fill="#6FBA6D"/><path d="M13.5 10.5C16.085 8.14 20.5 7 27 7s12.5 1.5 16.5 9c-5 1-9.897 1.1-14.5-1.5-7-3.952-12.833-5-15.5-4z" stroke="#519C4F"/><path d="M4.796 22.524c-.515-3.175.772-9.715 10.04-10.476 11.586-.953 13.517 9.904 30.895 4.952L42.5 11c1-1.5 3 1 5.355 2.571 4.174 2.786 2.124 5.715.386 8.19 1.159 1.97 3.514 7.544 3.669 14.096.154 6.553-.58 11.365-.965 12.953-.194.571-.27 1.79.965 2.095 1.545.38 1.93 6.095-2.124 4.952-4.055-1.143-3.283-.762-7.338 0C38.394 56.62 30.284 57 26.422 57s-14.675-.952-16.413-1.524c-1.738-.571-3.282-.762-6.951.381-3.669 1.143-1.545-5.333-.386-4.952 1.158.38.772 1.904 2.896 2.095 2.124.19-7.53-1.714-.386-28.381.643-1.905 4.286-5.143 13.71-2.857l10.812 4.19c1.931.699 6.874 1.715 11.2.19.257-.126.077-.418-2.704-.57-3.475-.191-6.178-.572-15.254-4.381-9.075-3.81-15.447-3.81-18.15 1.333z" stroke="#519C4F"/><path d="M62.088 26.498h.828c.708-1.293 1.3-2.746 1.78-4.357.478-1.612.785-3.228.922-4.849h5.53v9.206h1.384v4.454h-1.684V28h-7.075v2.952h-1.685v-4.454zm4.995-7.69c-.107 1.108-.38 2.395-.82 3.86-.44 1.46-.94 2.737-1.502 3.83h4.636v-7.69h-2.314zm8.8 1.091v4.153c0 .484-.04 1.194-.117 2.132l4.065-6.285h2.102V28h-1.656v-4.08c0-.224.013-.588.037-1.09.03-.504.054-.87.073-1.1L76.337 28h-2.102v-8.1h1.648zm10.374 0v3.252h3.816V19.9h1.722V28h-1.722v-3.494h-3.816V28h-1.72v-8.1h1.72zm11.422 8.247c-1.225 0-2.158-.356-2.797-1.069-.635-.718-.953-1.746-.953-3.083 0-1.363.332-2.41.997-3.142.668-.733 1.633-1.1 2.893-1.1.854 0 1.623.16 2.307.477l-.52 1.384c-.728-.283-1.328-.424-1.802-.424-1.401 0-2.102.93-2.102 2.79 0 .908.173 1.592.52 2.05.352.455.864.682 1.538.682.767 0 1.492-.19 2.175-.571v1.501c-.307.18-.637.31-.988.388-.347.078-.77.117-1.267.117zm9.335-8.247h1.89l-3.347 3.904L109.189 28h-1.977l-3.501-4.109V28h-1.721v-8.1h1.721v3.933l3.303-3.934zM115.748 28l-.344-1.128h-.059c-.39.493-.783.83-1.179 1.01-.395.177-.903.264-1.523.264-.796 0-1.419-.214-1.868-.644-.444-.43-.667-1.038-.667-1.824 0-.835.31-1.465.931-1.89.62-.424 1.565-.656 2.834-.695l1.399-.044v-.432c0-.518-.122-.904-.366-1.158-.239-.258-.613-.388-1.121-.388-.415 0-.813.061-1.194.183a8.962 8.962 0 0 0-1.098.432l-.557-1.23a5.87 5.87 0 0 1 1.443-.52 6.516 6.516 0 0 1 1.479-.183c1.031 0 1.807.224 2.33.674.527.449.791 1.154.791 2.117V28h-1.231zm-2.563-1.172c.625 0 1.125-.173 1.501-.52.381-.352.571-.842.571-1.472v-.703l-1.04.044c-.81.03-1.401.166-1.772.41-.366.24-.549.608-.549 1.106 0 .361.107.642.322.842.215.195.537.293.967.293zM120.358 28h-1.926l2.256-3.318c-.547-.156-.976-.434-1.289-.835-.312-.405-.469-.906-.469-1.501 0-.767.274-1.365.821-1.795.546-.434 1.294-.652 2.241-.652h3.691V28h-1.728v-3.12h-1.634L120.358 28zm.25-5.64c0 .415.156.728.468.938.318.205.742.308 1.275.308h1.604v-2.403h-1.875c-.469 0-.833.1-1.092.3-.254.2-.38.486-.38.857zm21.21 1.59c0 1.216-.368 2.185-1.106 2.907-.732.723-1.748 1.133-3.047 1.23v3.517h-1.633v-3.516c-1.284-.098-2.302-.513-3.054-1.245-.747-.738-1.121-1.702-1.121-2.893 0-1.236.364-2.21 1.092-2.923.727-.717 1.76-1.123 3.098-1.216v-3.207h1.618v3.207c1.299.118 2.315.54 3.047 1.268.738.727 1.106 1.684 1.106 2.87zm-8.174 0c0 .8.201 1.445.601 1.933.4.489 1.001.774 1.802.857v-5.58c-.806.092-1.409.38-1.809.863-.396.484-.594 1.126-.594 1.927zm6.394 0c0-.791-.2-1.426-.6-1.905-.396-.478-.987-.764-1.773-.857v5.552c.796-.092 1.389-.38 1.78-.864.396-.488.593-1.13.593-1.926zm8.991 4.05l-.345-1.128h-.058c-.391.493-.784.83-1.179 1.01-.396.177-.904.264-1.524.264-.796 0-1.418-.214-1.867-.644-.445-.43-.667-1.038-.667-1.824 0-.835.31-1.465.93-1.89.62-.424 1.565-.656 2.835-.695l1.399-.044v-.432c0-.518-.122-.904-.367-1.158-.239-.258-.612-.388-1.12-.388-.415 0-.813.061-1.194.183a9.041 9.041 0 0 0-1.099.432l-.556-1.23a5.87 5.87 0 0 1 1.443-.52 6.51 6.51 0 0 1 1.479-.183c1.03 0 1.807.224 2.329.674.528.449.791 1.154.791 2.117V28h-1.23zm-2.564-1.172c.625 0 1.126-.173 1.502-.52.381-.352.571-.842.571-1.472v-.703l-1.04.044c-.811.03-1.401.166-1.773.41-.366.24-.549.608-.549 1.106 0 .361.108.642.322.842.215.195.538.293.967.293zm5.878-3.691c0-1.807.305-3.196.915-4.168.616-.971 1.592-1.596 2.93-1.875a67.604 67.604 0 0 1 3.494-.6l.241 1.516c-1.601.244-2.773.434-3.515.571-.767.142-1.321.457-1.663.945-.337.488-.532 1.223-.586 2.204h.11a2.782 2.782 0 0 1 1.091-.937c.45-.225.931-.337 1.443-.337.996 0 1.773.315 2.329.945.557.63.835 1.514.835 2.651 0 1.304-.339 2.312-1.018 3.025-.674.713-1.609 1.07-2.805 1.07-1.186 0-2.117-.44-2.79-1.319-.674-.879-1.011-2.11-1.011-3.691zm3.918 3.603c1.28 0 1.919-.84 1.919-2.52 0-1.62-.578-2.43-1.736-2.43-.317 0-.625.067-.923.204a3.378 3.378 0 0 0-.827.542 2.873 2.873 0 0 0-.579.696c0 1.152.183 2.026.55 2.622.366.59.898.886 1.596.886zm9.95 1.407c-1.025 0-1.821-.37-2.388-1.106h-.102c.068.683.102 1.098.102 1.245v3.317h-1.721V19.9h1.392c.039.152.119.513.241 1.084h.088c.537-.82 1.343-1.23 2.417-1.23 1.011 0 1.797.366 2.359 1.099.566.732.849 1.76.849 3.083 0 1.323-.288 2.356-.864 3.098-.571.742-1.362 1.113-2.373 1.113zm-.417-6.988c-.684 0-1.185.2-1.502.6-.312.401-.469 1.04-.469 1.92v.256c0 .986.157 1.702.469 2.146.313.44.823.66 1.531.66.596 0 1.055-.245 1.377-.733.322-.488.483-1.184.483-2.088 0-.908-.161-1.594-.483-2.058-.318-.468-.786-.703-1.406-.703zm7.452-1.26v4.153c0 .484-.039 1.194-.117 2.132l4.065-6.285h2.102V28h-1.656v-4.08c0-.224.013-.588.037-1.09.029-.504.054-.87.073-1.1L173.7 28h-2.102v-8.1h1.648zm13.678 0h1.889l-3.347 3.904L189.099 28h-1.978l-3.501-4.109V28h-1.721v-8.1h1.721v3.933l3.304-3.934zM195.658 28l-.345-1.128h-.058c-.391.493-.784.83-1.179 1.01-.396.177-.904.264-1.524.264-.796 0-1.418-.214-1.868-.644-.444-.43-.666-1.038-.666-1.824 0-.835.31-1.465.93-1.89.62-.424 1.565-.656 2.835-.695l1.399-.044v-.432c0-.518-.123-.904-.367-1.158-.239-.258-.612-.388-1.12-.388-.415 0-.813.061-1.194.183a9.041 9.041 0 0 0-1.099.432l-.556-1.23c.439-.23.92-.403 1.442-.52a6.525 6.525 0 0 1 1.48-.183c1.03 0 1.807.224 2.329.674.527.449.791 1.154.791 2.117V28h-1.23zm-2.564-1.172c.625 0 1.126-.173 1.502-.52.38-.352.571-.842.571-1.472v-.703l-1.04.044c-.811.03-1.402.166-1.773.41-.366.24-.549.608-.549 1.106 0 .361.107.642.322.842.215.195.537.293.967.293zM67.881 46.352l.096-.351c.2-.728.373-1.287.52-1.678l1.816-4.424h2.293V48h-1.59v-6.54l-.132.439c-.22.786-.405 1.365-.556 1.736L68.555 48h-1.304l-1.772-4.395a19.704 19.704 0 0 1-.674-2.145V48H63.23v-8.1h2.278l1.758 4.291c.156.396.361 1.116.615 2.161zm10.873 1.795c-1.26 0-2.246-.367-2.959-1.1-.708-.736-1.062-1.75-1.062-3.039 0-1.323.33-2.363.989-3.12.659-.757 1.565-1.135 2.717-1.135 1.07 0 1.914.325 2.534.974.62.65.93 1.543.93 2.68v.93h-5.398c.025.787.237 1.392.638 1.817.4.42.964.63 1.692.63a6.36 6.36 0 0 0 1.333-.132c.415-.092.859-.244 1.333-.454v1.4c-.42.2-.845.341-1.275.424-.43.083-.92.125-1.472.125zm-.315-7.09c-.547 0-.986.173-1.318.52-.327.346-.523.852-.586 1.516h3.677c-.01-.67-.171-1.175-.484-1.516-.312-.347-.742-.52-1.289-.52zM95.486 48H84.009v-8.1h1.721v6.738h3.157v-6.739h1.721v6.739h3.15v-6.739h1.728V48zm7.643-8.1h1.889l-3.347 3.903L105.304 48h-1.978l-3.5-4.109V48h-1.722v-8.1h1.722v3.933l3.303-3.934zm10.85 4.035c0 1.323-.339 2.356-1.018 3.098-.678.742-1.623 1.114-2.834 1.114-.757 0-1.426-.171-2.007-.513a3.381 3.381 0 0 1-1.34-1.472c-.313-.64-.469-1.382-.469-2.227 0-1.313.337-2.339 1.011-3.076.674-.737 1.623-1.106 2.849-1.106 1.172 0 2.099.378 2.783 1.135.684.752 1.025 1.768 1.025 3.047zm-5.896 0c0 1.87.691 2.805 2.073 2.805 1.367 0 2.051-.935 2.051-2.805 0-1.85-.689-2.776-2.065-2.776-.723 0-1.248.24-1.575.718-.322.478-.484 1.164-.484 2.058zm14.118-4.036v1.348h-2.637V48h-1.729v-6.753h-2.636V39.9h7.002zM128.979 48l-.344-1.128h-.059c-.39.493-.783.83-1.179 1.01-.395.177-.903.265-1.523.265-.796 0-1.419-.215-1.868-.645-.444-.43-.667-1.038-.667-1.824 0-.835.311-1.465.931-1.89.62-.424 1.565-.656 2.834-.695l1.399-.044v-.432c0-.518-.122-.904-.366-1.157-.239-.26-.613-.389-1.121-.389-.415 0-.813.061-1.194.183-.38.123-.747.267-1.098.433l-.557-1.23a5.9 5.9 0 0 1 1.443-.521 6.516 6.516 0 0 1 1.479-.183c1.031 0 1.807.224 2.33.674.527.449.791 1.154.791 2.117V48h-1.231zm-2.563-1.172c.625 0 1.125-.173 1.501-.52.381-.352.571-.842.571-1.472v-.703l-1.04.044c-.81.03-1.401.166-1.772.41-.366.24-.549.608-.549 1.106 0 .361.107.642.322.842.215.196.537.293.967.293zm10.455 1.319c-1.026 0-1.821-.37-2.388-1.106h-.102c.068.683.102 1.098.102 1.245v3.317h-1.721V39.9h1.392c.039.152.119.513.241 1.084h.088c.537-.82 1.343-1.23 2.417-1.23 1.011 0 1.797.366 2.358 1.099.567.732.85 1.76.85 3.083 0 1.323-.288 2.356-.864 3.098-.571.742-1.362 1.114-2.373 1.114zm-.418-6.988c-.683 0-1.184.2-1.501.6-.313.401-.469 1.04-.469 1.92v.256c0 .986.156 1.702.469 2.146.312.44.823.66 1.531.66.595 0 1.054-.245 1.377-.733.322-.489.483-1.184.483-2.088 0-.908-.161-1.594-.483-2.058-.318-.468-.787-.703-1.407-.703zm7.526 1.978h1.64c1.133 0 1.971.195 2.513.586.542.39.813.976.813 1.758 0 .834-.284 1.464-.85 1.89-.562.419-1.387.629-2.476.629h-3.361v-8.1h1.721v3.237zm3.259 2.387c0-.405-.151-.688-.454-.85-.298-.16-.728-.24-1.289-.24h-1.516v2.292h1.296c.694 0 1.194-.098 1.502-.293.307-.196.461-.498.461-.909zm4.71 2.476h-1.729v-8.1h1.729V48z" fill="#519C4F"/><path d="M16.534 48c2.288-.072 6.781-1.913 6.449-8.696-2.427.435-7.115 2.783-6.449 8.696zM13.83 47.783c.555-2.827.458-8.87-4.368-10.435-.832 2.898-1.124 9.043 4.368 10.435zM15.91 40.826c1.872-1.884 4.743-7.087 1.248-12.826-1.733 1.884-4.41 7.087-1.248 12.826z" fill="#3B7B3A"/><path d="M16.534 48c2.288-.072 6.781-1.913 6.449-8.696-2.427.435-7.115 2.783-6.449 8.696zM13.83 47.783c.555-2.827.458-8.87-4.368-10.435-.832 2.898-1.124 9.043 4.368 10.435zM15.91 40.826c1.872-1.884 4.743-7.087 1.248-12.826-1.733 1.884-4.41 7.087-1.248 12.826z" stroke="#3B7B3A"/><path d="M21 8.852c.5-1.21 2-1.06 3 0-1.5.44-1.5 1.253-3 0zM30.253 8.626c.718-.535 1.61-.41 2.36 1.075-1.517.202-1.517.202-2.36-1.075zM25.253 10.626c.718-.535 1.61-.41 2.36 1.075-1.517.202-1.517.202-2.36-1.075zM28.491 10.038c-.815.371-1.661.06-2.08-1.55 1.525.124 1.525.124 2.08 1.55zM35.586 13.542c-.026.896-.679 1.518-2.307 1.185.782-1.315.782-1.315 2.307-1.185zM31.586 11.542c-.026.896-.679 1.518-2.307 1.185.782-1.315.782-1.315 2.307-1.185zM40.565 14.889c-.782.437-1.65.197-2.201-1.372 1.53-.004 1.53-.004 2.201 1.372zM37.565 11.889c-.782.437-1.65.197-2.201-1.372 1.53-.004 1.53-.004 2.201 1.372z" fill="#3B7B3A"/></svg>